<?xml version="1.0" encoding="UTF-8" standalone="no"?>
<!-- Created with Inkscape (http://www.inkscape.org/) -->

<svg
   xmlns:dc="http://purl.org/dc/elements/1.1/"
   xmlns:cc="http://creativecommons.org/ns#"
   xmlns:rdf="http://www.w3.org/1999/02/22-rdf-syntax-ns#"
   xmlns:svg="http://www.w3.org/2000/svg"
   xmlns="http://www.w3.org/2000/svg"
   xmlns:sodipodi="http://sodipodi.sourceforge.net/DTD/sodipodi-0.dtd"
   xmlns:inkscape="http://www.inkscape.org/namespaces/inkscape"
   width="445.39557"
   height="297.2648"
   id="svg4002"
   version="1.1"
   inkscape:version="0.48.3.1 r9886"
   sodipodi:docname="bpmn_basic_elements.pdf">
  <defs
     id="defs4004">
    <clipPath
       clipPathUnits="userSpaceOnUse"
       id="clipPath3181">
      <path
         inkscape:connector-curvature="0"
         d="m 22.6772,27.4961 476.5828,0 0,324.4999 -476.5828,0 0,-324.4999 z"
         id="path3183" />
    </clipPath>
  </defs>
  <sodipodi:namedview
     id="base"
     pagecolor="#ffffff"
     bordercolor="#666666"
     borderopacity="1.0"
     inkscape:pageopacity="0.0"
     inkscape:pageshadow="2"
     inkscape:zoom="16"
     inkscape:cx="388.82639"
     inkscape:cy="252.40265"
     inkscape:document-units="mm"
     inkscape:current-layer="g3185"
     showgrid="false"
     units="mm"
     fit-margin-top="0"
     fit-margin-left="0"
     fit-margin-right="0"
     fit-margin-bottom="0"
     inkscape:window-width="1920"
     inkscape:window-height="1018"
     inkscape:window-x="-8"
     inkscape:window-y="-8"
     inkscape:window-maximized="1"
     showguides="true"
     inkscape:guide-bbox="true" />
  <metadata
     id="metadata4007">
    <rdf:RDF>
      <cc:Work
         rdf:about="">
        <dc:format>image/svg+xml</dc:format>
        <dc:type
           rdf:resource="http://purl.org/dc/dcmitype/StillImage" />
        <dc:title></dc:title>
      </cc:Work>
    </rdf:RDF>
  </metadata>
  <g
     inkscape:label="Layer 1"
     inkscape:groupmode="layer"
     id="layer1"
     transform="translate(-152.29753,-383.7276)">
    <g
       id="g3179"
       transform="matrix(0.9368375,0,0,-0.9368375,129.97698,708.12853)" />
    <g
       id="g3185"
       transform="matrix(0.9368375,0,0,-0.9368375,129.97698,708.12853)">
      <path
         inkscape:connector-curvature="0"
         id="path3189"
         style="fill:#ffffff;fill-opacity:1;fill-rule:evenodd;stroke:none"
         d="m 96.378,272.16 53.862,0 c 3.13,0 5.67,2.53 5.67,5.66 0,0 0,0 0,0 l 0,32.13 c 0,3.13 -2.54,5.67 -5.67,5.67 l -53.862,0 c -3.131,0 -5.669,-2.54 -5.669,-5.67 l 0,-32.13 c 0,-3.13 2.538,-5.66 5.669,-5.66 z" />
      <path
         inkscape:connector-curvature="0"
         id="path3191"
         style="fill:none;stroke:#000000;stroke-width:0.72000003;stroke-linecap:round;stroke-linejoin:round;stroke-miterlimit:10;stroke-opacity:1;stroke-dasharray:none"
         d="m 96.378,272.16 53.862,0 c 3.13,0 5.67,2.53 5.67,5.66 0,0 0,0 0,0 l 0,32.13 c 0,3.13 -2.54,5.67 -5.67,5.67 l -53.862,0 c -3.131,0 -5.669,-2.54 -5.669,-5.67 l 0,-32.13 c 0,-3.13 2.538,-5.66 5.669,-5.66 z" />
      <path
         inkscape:connector-curvature="0"
         id="path3193"
         style="fill:#ffffff;fill-opacity:1;fill-rule:evenodd;stroke:none"
         d="m 136.06,244.75 c 0,7.83 -6.34,14.18 -14.17,14.18 -7.83,0 -14.17,-6.35 -14.17,-14.18 0,-7.82 6.34,-14.17 14.17,-14.17 7.83,0 14.17,6.35 14.17,14.17 z" />
      <path
         inkscape:connector-curvature="0"
         id="path3195"
         style="fill:none;stroke:#000000;stroke-width:0.72000003;stroke-linecap:round;stroke-linejoin:round;stroke-miterlimit:10;stroke-opacity:1;stroke-dasharray:none"
         d="m 136.06,244.75 c 0,7.83 -6.34,14.18 -14.17,14.18 -7.83,0 -14.17,-6.35 -14.17,-14.18 0,-7.82 6.34,-14.17 14.17,-14.17 7.83,0 14.17,6.35 14.17,14.17 z" />
      <path
         inkscape:connector-curvature="0"
         id="path3197"
         style="fill:#ffffff;fill-opacity:1;fill-rule:evenodd;stroke:none"
         d="m 99.213,192.31 21.257,21.26 21.26,-21.26 -21.26,-21.26 -21.257,21.26 z" />
      <path
         inkscape:connector-curvature="0"
         id="path3199"
         style="fill:none;stroke:#000000;stroke-width:0.72000003;stroke-linecap:round;stroke-linejoin:round;stroke-miterlimit:10;stroke-opacity:1;stroke-dasharray:none"
         d="m 99.213,192.31 21.257,21.26 21.26,-21.26 -21.26,-21.26 -21.257,21.26 z" />
      <path
         inkscape:connector-curvature="0"
         id="path3201"
         style="fill:none;stroke:#000000;stroke-width:0.23999999;stroke-linecap:round;stroke-linejoin:round;stroke-miterlimit:10;stroke-opacity:1;stroke-dasharray:none"
         d="m 277.8,295.78 34.85,0" />
      <path
         inkscape:connector-curvature="0"
         id="path3203"
         style="fill:#000000;fill-opacity:1;fill-rule:evenodd;stroke:none"
         d="m 311.96,298.54 5.52,-2.76 -5.52,-2.76 0,5.52 z" />
      <g
         id="g3205">
        <path
           inkscape:connector-curvature="0"
           id="path3207"
           style="fill:none;stroke:#000000;stroke-width:0.72000003;stroke-linecap:round;stroke-linejoin:round;stroke-miterlimit:10;stroke-opacity:1;stroke-dasharray:5.04, 3.6;stroke-dashoffset:0"
           d="m 283.06,246.88 30.37,0" />
      </g>
      <path
         inkscape:connector-curvature="0"
         id="path3209"
         style="fill:none;stroke:#000000;stroke-width:0.72000003;stroke-linecap:round;stroke-linejoin:round;stroke-miterlimit:10;stroke-opacity:1;stroke-dasharray:none"
         d="m 283.06,246.88 c 0,1.34 -1.09,2.43 -2.43,2.43 -1.34,0 -2.43,-1.09 -2.43,-2.43 0,0 0,0 0,0 0,-1.34 1.09,-2.43 2.43,-2.43 1.34,0 2.43,1.09 2.43,2.43 z" />
      <path
         inkscape:connector-curvature="0"
         id="path3211"
         style="fill:none;stroke:#000000;stroke-width:0.72000003;stroke-linecap:round;stroke-linejoin:round;stroke-miterlimit:10;stroke-opacity:1;stroke-dasharray:none"
         d="m 313.43,243.64 9.72,3.24 -9.72,3.24 0,-6.48 z" />
      <g
         id="g3213">
        <path
           inkscape:connector-curvature="0"
           id="path3215"
           style="fill:none;stroke:#000000;stroke-width:1.20000005;stroke-linecap:round;stroke-linejoin:round;stroke-miterlimit:10;stroke-opacity:1;stroke-dasharray:0, 3.6;stroke-dashoffset:0"
           d="m 282.05,179.56 42.52,0" />
      </g>
      <path
         inkscape:connector-curvature="0"
         id="path3217"
         style="fill:none;stroke:#000000;stroke-width:1.20000005;stroke-linecap:round;stroke-linejoin:round;stroke-miterlimit:10;stroke-opacity:1;stroke-dasharray:none"
         d="m 317.13,175.84 c 1.75,2.34 4.51,3.72 7.44,3.72 -2.93,0 -5.69,1.38 -7.44,3.72" />
      <g
         id="g3219">
        <path
           inkscape:connector-curvature="0"
           id="path3221"
           style="fill:none;stroke:#000000;stroke-width:1.20000005;stroke-linecap:round;stroke-linejoin:round;stroke-miterlimit:10;stroke-opacity:1;stroke-dasharray:0, 3.6;stroke-dashoffset:0"
           d="m 282.05,193.73 42.52,0" />
      </g>
      <path
         inkscape:connector-curvature="0"
         id="path3223"
         style="fill:#ffffff;fill-opacity:1;fill-rule:evenodd;stroke:none"
         d="m 25.512,29.321 201.26,0 0,85.039 -201.26,0 0,-85.039 z" />
      <path
         inkscape:connector-curvature="0"
         id="path3225"
         style="fill:none;stroke:#000000;stroke-width:0.72000003;stroke-linecap:round;stroke-linejoin:round;stroke-miterlimit:10;stroke-opacity:1;stroke-dasharray:none"
         d="m 25.512,29.321 201.26,0 0,85.039 -201.26,0 0,-85.039 z" />
      <path
         inkscape:connector-curvature="0"
         id="path3227"
         style="fill:#ffffff;fill-opacity:1;fill-rule:evenodd;stroke:none"
         d="m 25.512,71.841 201.26,0 0,42.52 -201.26,0 0,-42.52 z" />
      <path
         inkscape:connector-curvature="0"
         id="path3229"
         style="fill:none;stroke:#000000;stroke-width:0.72000003;stroke-linecap:round;stroke-linejoin:round;stroke-miterlimit:10;stroke-opacity:1;stroke-dasharray:none"
         d="m 25.512,71.841 201.26,0 0,42.52 -201.26,0 0,-42.52 z" />
      <g
         id="g3231">
        <path
           inkscape:connector-curvature="0"
           id="path3233"
           style="fill:none;stroke:#000000;stroke-width:0.72000003;stroke-linecap:round;stroke-linejoin:round;stroke-miterlimit:10;stroke-opacity:1;stroke-dasharray:5.04, 3.6, 0, 3.6;stroke-dashoffset:0"
           d="m 430.87,227.75 62.36,0 c 3.13,0 5.67,2.53 5.67,5.67 0,0 0,0 0,0 l 0,0 0,27.49 c 0,3.13 -2.54,5.67 -5.67,5.67 l -62.36,0 c -3.13,0 -5.67,-2.54 -5.67,-5.67 l 0,0 0,-27.49 c 0,-3.14 2.54,-5.67 5.67,-5.67 z" />
      </g>
      <text
         id="text3237"
         transform="scale(1,-1)"
         x="428.32001"
         y="-288.98999">
        <tspan
           id="tspan3239"
           sodipodi:role="line"
           y="-288.98999"
           x="428.32001 436.87143 444.65753 451.65744"
           style="font-size:13.99967957px;font-variant:normal;font-weight:normal;writing-mode:lr-tb;fill:#000000;fill-opacity:1;fill-rule:nonzero;stroke:none;font-family:Arial;-inkscape-font-specification:Arial">Text</tspan>
      </text>
      <path
         inkscape:connector-curvature="0"
         id="path3241"
         style="fill:#ffffff;fill-opacity:1;fill-rule:evenodd;stroke:none"
         d="m 25.512,29.321 28.346,0 0,85.039 -28.346,0 0,-85.039 z" />
      <path
         inkscape:connector-curvature="0"
         id="path3243"
         style="fill:none;stroke:#000000;stroke-width:0.72000003;stroke-linecap:round;stroke-linejoin:round;stroke-miterlimit:10;stroke-opacity:1;stroke-dasharray:none"
         d="m 25.512,29.321 28.346,0 0,85.039 -28.346,0 0,-85.039 z" />
      <text
         id="text3245"
         transform="matrix(0,1,1,0,0,0)"
         x="59.832001"
         y="43.285">
        <tspan
           id="tspan3247"
           sodipodi:role="line"
           y="43.285"
           x="59.832001 67.836243 74.510139 81.184029"
           style="font-size:12.00024033px;font-variant:normal;font-weight:normal;writing-mode:lr-tb;fill:#000000;fill-opacity:1;fill-rule:nonzero;stroke:none;font-family:Arial;-inkscape-font-specification:Arial">Pool</tspan>
      </text>
      <path
         inkscape:connector-curvature="0"
         id="path3249"
         style="fill:#ffffff;fill-opacity:1;fill-rule:evenodd;stroke:none"
         d="m 53.858,71.841 28.346,0 0,42.52 -28.346,0 0,-42.52 z" />
      <path
         inkscape:connector-curvature="0"
         id="path3251"
         style="fill:none;stroke:#000000;stroke-width:0.72000003;stroke-linecap:round;stroke-linejoin:round;stroke-miterlimit:10;stroke-opacity:1;stroke-dasharray:none"
         d="m 53.858,71.841 28.346,0 0,42.52 -28.346,0 0,-42.52 z" />
      <text
         id="text3253"
         transform="matrix(0,1,1,0,0,0)"
         x="79.752998"
         y="71.632004">
        <tspan
           id="tspan3255"
           sodipodi:role="line"
           y="71.632004"
           x="79.752998 86.426895 93.100792 99.774689"
           style="font-size:12.00024033px;font-variant:normal;font-weight:normal;writing-mode:lr-tb;fill:#000000;fill-opacity:1;fill-rule:nonzero;stroke:none;font-family:Arial;-inkscape-font-specification:Arial">Lane</tspan>
      </text>
      <path
         inkscape:connector-curvature="0"
         id="path3257"
         style="fill:#ffffff;fill-opacity:1;fill-rule:evenodd;stroke:none"
         d="m 53.858,29.321 28.346,0 0,42.52 -28.346,0 0,-42.52 z" />
      <path
         inkscape:connector-curvature="0"
         id="path3259"
         style="fill:none;stroke:#000000;stroke-width:0.72000003;stroke-linecap:round;stroke-linejoin:round;stroke-miterlimit:10;stroke-opacity:1;stroke-dasharray:none"
         d="m 53.858,29.321 28.346,0 0,42.52 -28.346,0 0,-42.52 z" />
      <text
         id="text3261"
         transform="matrix(0,1,1,0,0,0)"
         x="37.233002"
         y="71.632004">
        <tspan
           id="tspan3263"
           sodipodi:role="line"
           y="71.632004"
           x="37.233002 43.906895 50.580791 57.254688"
           style="font-size:12.00024033px;font-variant:normal;font-weight:normal;writing-mode:lr-tb;fill:#000000;fill-opacity:1;fill-rule:nonzero;stroke:none;font-family:Arial;-inkscape-font-specification:Arial">Lane</tspan>
      </text>
      <text
         id="text3265"
         transform="scale(1,-1)"
         x="182.58"
         y="-287.92999">
        <tspan
           id="tspan3267"
           sodipodi:role="line"
           y="-287.92999"
           x="182.58 190.58424 197.25813 203.93204 210.60593 217.27983 223.95372 229.95392 233.28801 235.9541 242.62801 248.62819"
           style="font-size:12.00024033px;font-variant:normal;font-weight:normal;writing-mode:lr-tb;fill:#000000;fill-opacity:1;fill-rule:nonzero;stroke:none;font-family:Arial;-inkscape-font-specification:Arial">Sequenzfluss</tspan>
      </text>
      <text
         id="text3269"
         transform="scale(1,-1)"
         x="182.58"
         y="-243.28">
        <tspan
           id="tspan3271"
           sodipodi:role="line"
           y="-243.28"
           x="182.58 191.24593 197.91982 203.92001 210.5939 214.5899 217.256 223.25618 229.93008 233.26419 239.93808 246.61197 249.94608 252.61217 259.28607 265.28625"
           style="font-size:12.00024033px;font-variant:normal;font-weight:normal;writing-mode:lr-tb;fill:#000000;fill-opacity:1;fill-rule:nonzero;stroke:none;font-family:Arial;-inkscape-font-specification:Arial">Nachrichtenfluss</tspan>
      </text>
      <text
         id="text3273"
         transform="scale(1,-1)"
         x="184"
         y="-185.88">
        <tspan
           id="tspan3275"
           sodipodi:role="line"
           y="-185.88"
           x="184 192.00424 198.00443 204.00462 210.67853 216.67871 219.3448 226.01869 229.3528 232.01889 238.69278"
           style="font-size:12.00024033px;font-variant:normal;font-weight:normal;writing-mode:lr-tb;fill:#000000;fill-opacity:1;fill-rule:nonzero;stroke:none;font-family:Arial;-inkscape-font-specification:Arial">Assoziation</tspan>
      </text>
      <text
         id="text3277"
         transform="scale(1,-1)"
         x="23.843"
         y="-241.14999">
        <tspan
           id="tspan3279"
           sodipodi:role="line"
           y="-241.14999"
           x="23.843 31.84724 35.843239 42.517136 45.183224 51.857121 58.531013 61.197102"
           style="font-size:12.00024033px;font-variant:normal;font-weight:normal;writing-mode:lr-tb;fill:#000000;fill-opacity:1;fill-rule:nonzero;stroke:none;font-family:Arial;-inkscape-font-specification:Arial">Ereignis</tspan>
      </text>
      <text
         id="text3281"
         transform="scale(1,-1)"
         x="23.843"
         y="-287.92999">
        <tspan
           id="tspan3283"
           sodipodi:role="line"
           y="-287.92999"
           x="23.843 31.84724 37.847431 41.181534 43.847622 49.847816 52.513905 55.848007 62.521904"
           style="font-size:12.00024033px;font-variant:normal;font-weight:normal;writing-mode:lr-tb;fill:#000000;fill-opacity:1;fill-rule:nonzero;stroke:none;font-family:Arial;-inkscape-font-specification:Arial">Aktivität</tspan>
      </text>
      <text
         id="text3285"
         transform="scale(1,-1)"
         x="23.843"
         y="-185.88">
        <tspan
           id="tspan3287"
           sodipodi:role="line"
           y="-185.88"
           x="23.843 33.177078 39.850975 43.185078 49.858974 58.524895 65.198792"
           style="font-size:12.00024033px;font-variant:normal;font-weight:normal;writing-mode:lr-tb;fill:#000000;fill-opacity:1;fill-rule:nonzero;stroke:none;font-family:Arial;-inkscape-font-specification:Arial">Gateway</tspan>
      </text>
      <text
         id="text3289"
         transform="scale(1,-1)"
         x="349.82999"
         y="-193.08">
        <tspan
           id="tspan3291"
           sodipodi:role="line"
           y="-193.08"
           x="349.82999 357.83423 360.50034 367.17422 373.84811 380.522"
           style="font-size:12.00024033px;font-variant:normal;font-weight:normal;writing-mode:lr-tb;fill:#000000;fill-opacity:1;fill-rule:nonzero;stroke:none;font-family:Arial;-inkscape-font-specification:Arial">Eigene</tspan>
      </text>
      <text
         id="text3293"
         transform="scale(1,-1)"
         x="349.82999"
         y="-178.67999">
        <tspan
           id="tspan3295"
           sodipodi:role="line"
           y="-178.67999"
           x="349.82999 357.83423 363.83444 373.8309 380.50482 387.17871 389.84479"
           style="font-size:12.00024033px;font-variant:normal;font-weight:normal;writing-mode:lr-tb;fill:#000000;fill-opacity:1;fill-rule:nonzero;stroke:none;font-family:Arial;-inkscape-font-specification:Arial">Symbole</tspan>
      </text>
      <text
         id="text3297"
         transform="scale(1,-1)"
         x="349.82999"
         y="-243">
        <tspan
           id="tspan3299"
           sodipodi:role="line"
           y="-243"
           x="349.82999 359.16409 363.1601 369.83398 376.50787 383.18176 385.84787 392.52176 396.51776 403.19165 409.86554"
           style="font-size:12.00024033px;font-variant:normal;font-weight:normal;writing-mode:lr-tb;fill:#000000;fill-opacity:1;fill-rule:nonzero;stroke:none;font-family:Arial;-inkscape-font-specification:Arial">Gruppierung</tspan>
      </text>
      <text
         id="text3301"
         transform="scale(1,-1)"
         x="351.23999"
         y="-287.92999">
        <tspan
           id="tspan3303"
           sodipodi:role="line"
           y="-287.92999"
           x="351.23999 359.24423 365.91812 375.91461 382.5885 386.5845 392.58472 399.25861 405.9325"
           style="font-size:12.00024033px;font-variant:normal;font-weight:normal;writing-mode:lr-tb;fill:#000000;fill-opacity:1;fill-rule:nonzero;stroke:none;font-family:Arial;-inkscape-font-specification:Arial">Anmerkung</tspan>
      </text>
      <text
         id="text3305"
         transform="scale(1,-1)"
         x="57.026001"
         y="-337.53">
        <tspan
           id="tspan3307"
           sodipodi:role="line"
           y="-337.53"
           x="57.026001 64.356323 67.022408 73.696304 79.696495 85.696686 92.370583 99.044479 101.71056 108.38446 114.38466 117.71876"
           style="font-size:12.00024033px;font-variant:normal;font-weight:normal;writing-mode:lr-tb;fill:#000000;fill-opacity:1;fill-rule:nonzero;stroke:none;font-family:Arial;-inkscape-font-specification:Arial">Flussobjekte</tspan>
      </text>
      <path
         inkscape:connector-curvature="0"
         id="path3309"
         style="fill:none;stroke:#000000;stroke-width:0.87891001;stroke-linecap:butt;stroke-linejoin:miter;stroke-miterlimit:2;stroke-opacity:1;stroke-dasharray:none"
         d="m 57.026,336.26 67.364,0" />
      <text
         id="text3311"
         transform="scale(1,-1)"
         x="194.49001"
         y="-337.53">
        <tspan
           id="tspan3313"
           sodipodi:role="line"
           y="-337.53"
           x="194.49001 202.49425 209.16814 213.16414 219.83803 222.50412 229.17801 235.85191 242.5258 249.19971 255.8736 262.54749 265.88159 275.21567 281.88959 284.55566 291.22955 297.22977 300.56384"
           style="font-size:12.00024033px;font-variant:normal;font-weight:normal;writing-mode:lr-tb;fill:#000000;fill-opacity:1;fill-rule:nonzero;stroke:none;font-family:Arial;-inkscape-font-specification:Arial">Verbindende Objekte</tspan>
      </text>
      <path
         inkscape:connector-curvature="0"
         id="path3315"
         style="fill:none;stroke:#000000;stroke-width:0.87891001;stroke-linecap:butt;stroke-linejoin:miter;stroke-miterlimit:2;stroke-opacity:1;stroke-dasharray:none"
         d="m 194.49,336.26 112.75,0" />
      <text
         id="text3317"
         transform="scale(1,-1)"
         x="401.17999"
         y="-337.53">
        <tspan
           id="tspan3319"
           sodipodi:role="line"
           y="-337.53"
           x="401.17999 409.18423 413.18024 416.51434 423.18823 426.52234 433.19623 439.19644 442.53055"
           style="font-size:12.00024033px;font-variant:normal;font-weight:normal;writing-mode:lr-tb;fill:#000000;fill-opacity:1;fill-rule:nonzero;stroke:none;font-family:Arial;-inkscape-font-specification:Arial">Artefakte</tspan>
      </text>
      <path
         inkscape:connector-curvature="0"
         id="path3321"
         style="fill:none;stroke:#000000;stroke-width:0.87891001;stroke-linecap:butt;stroke-linejoin:miter;stroke-miterlimit:2;stroke-opacity:1;stroke-dasharray:none"
         d="m 401.18,336.26 48.03,0" />
      <text
         id="text3323"
         transform="scale(1,-1)"
         x="94.711998"
         y="-129.19">
        <tspan
           id="tspan3325"
           sodipodi:role="line"
           y="-129.19"
           x="94.711998 102.04232 108.71622 111.3823 114.04839 120.72229 127.39619 134.07008 144.06656 150.74046"
           style="font-size:12.00024033px;font-variant:normal;font-weight:normal;writing-mode:lr-tb;fill:#000000;fill-opacity:1;fill-rule:nonzero;stroke:none;font-family:Arial;-inkscape-font-specification:Arial">Teilnehmer</tspan>
      </text>
      <path
         inkscape:connector-curvature="0"
         id="path3327"
         style="fill:none;stroke:#000000;stroke-width:0.87891001;stroke-linecap:butt;stroke-linejoin:miter;stroke-miterlimit:2;stroke-opacity:1;stroke-dasharray:none"
         d="m 94.712,127.91 60.028,0" />
      <text
         id="text3329"
         transform="scale(1,-1)"
         x="366.67001"
         y="-129.19">
        <tspan
           id="tspan3331"
           sodipodi:role="line"
           y="-129.19"
           x="366.67001 375.33591 382.00983 385.34393 392.01782"
           style="font-size:12.00024033px;font-variant:normal;font-weight:normal;writing-mode:lr-tb;fill:#000000;fill-opacity:1;fill-rule:nonzero;stroke:none;font-family:Arial;-inkscape-font-specification:Arial">Daten</tspan>
      </text>
      <path
         inkscape:connector-curvature="0"
         id="path3333"
         style="fill:none;stroke:#000000;stroke-width:0.87891001;stroke-linecap:butt;stroke-linejoin:miter;stroke-miterlimit:2;stroke-opacity:1;stroke-dasharray:none"
         d="m 366.67,127.91 32.02,0" />
      <path
         inkscape:connector-curvature="0"
         id="path3335"
         style="fill:#f2f2f2;fill-opacity:1;fill-rule:evenodd;stroke:none"
         d="m 431.69,191.67 -5.93,-1.51 6.92,-1.98 -5.65,-4.42 7.48,-1.98 -4.23,-4.33 9.6,-0.75 1.46,-4.93 8.28,1.82 6.07,-2.54 4.66,2.45 4.9,-2.45 4.14,2.92 6.35,-1.98 5.65,3.86 10.44,-1.13 -2.68,4.52 7.2,0.47 -4.94,5.18 6.07,2.9 -7.76,3.22 4.37,4.51 -8.19,0.19 3.27,5.24 -10.33,-0.72 -0.63,5.4 -10.38,-2.39 -3.77,3.95 -6.67,-3.57 -6.49,3.57 -3.96,-5.36 -7,2.84 0.22,-4.72 -8.98,1.36 2.21,-4.84 -8.19,0.18 6.49,-4.98 z" />
      <path
         inkscape:connector-curvature="0"
         id="path3337"
         style="fill:none;stroke:#000000;stroke-width:0.23999999;stroke-linecap:round;stroke-linejoin:round;stroke-miterlimit:2;stroke-opacity:1;stroke-dasharray:none"
         d="m 431.69,191.67 -5.93,-1.51 6.92,-1.98 -5.65,-4.42 7.48,-1.98 -4.23,-4.33 9.6,-0.75 1.46,-4.93 8.28,1.82 6.07,-2.54 4.66,2.45 4.9,-2.45 4.14,2.92 6.35,-1.98 5.65,3.86 10.44,-1.13 -2.68,4.52 7.2,0.47 -4.94,5.18 6.07,2.9 -7.76,3.22 4.37,4.51 -8.19,0.19 3.27,5.24 -10.33,-0.72 -0.63,5.4 -10.38,-2.39 -3.77,3.95 -6.67,-3.57 -6.49,3.57 -3.96,-5.36 -7,2.84 0.22,-4.72 -8.98,1.36 2.21,-4.84 -8.19,0.18 6.49,-4.98 z" />
      <text
         id="text3339"
         transform="scale(1,-1)"
         x="459.69"
         y="-186.12">
        <tspan
           id="tspan3341"
           y="-186.12"
           x="459.69"
           style="font-size:10.00008011px;font-variant:normal;font-weight:normal;writing-mode:lr-tb;fill:#000000;fill-opacity:1;fill-rule:nonzero;stroke:none;font-family:Arial;-inkscape-font-specification:Arial">?</tspan>
      </text>
      <path
         inkscape:connector-curvature="0"
         id="path3343"
         style="fill:#ffffff;fill-opacity:1;fill-rule:evenodd;stroke:none"
         d="m 335.49,62.404 0,-19.228 c 0,-2.08 8.44,-3.767 18.84,-3.767 10.4,0 18.84,1.687 18.84,3.767 0,0 0,0 0,0 l 0,19.228 c 0,2.081 -8.44,3.767 -18.84,3.767 -10.4,0 -18.84,-1.686 -18.84,-3.767 z" />
      <path
         inkscape:connector-curvature="0"
         id="path3345"
         style="fill:none;stroke:#000000;stroke-width:0.72000003;stroke-linecap:round;stroke-linejoin:round;stroke-miterlimit:2;stroke-opacity:1;stroke-dasharray:none"
         d="m 335.49,62.404 0,-19.228 c 0,-2.08 8.44,-3.767 18.84,-3.767 10.4,0 18.84,1.687 18.84,3.767 0,0 0,0 0,0 l 0,19.228 c 0,2.081 -8.44,3.767 -18.84,3.767 -10.4,0 -18.84,-1.686 -18.84,-3.767 z" />
      <path
         inkscape:connector-curvature="0"
         id="path3347"
         style="fill:none;stroke:#000000;stroke-width:0.72000003;stroke-linecap:round;stroke-linejoin:round;stroke-miterlimit:2;stroke-opacity:1;stroke-dasharray:none"
         d="m 335.49,62.404 c 0,-2.081 8.44,-3.767 18.84,-3.767 10.4,0 18.84,1.686 18.84,3.767 0,0 0,0 0,0 M 335.49,60.52 c 0,-2.08 8.44,-3.767 18.84,-3.767 10.4,0 18.84,1.687 18.84,3.767 0,0 0,0 0,0 m -37.68,-1.883 c 0,-2.081 8.44,-3.768 18.84,-3.768 10.4,0 18.84,1.687 18.84,3.768 0,0 0,0 0,0" />
      <path
         inkscape:connector-curvature="0"
         id="path3349"
         style="fill:#ffffff;fill-opacity:1;fill-rule:evenodd;stroke:none"
         d="m 343.87,114.36 0,-28.346 20.92,0 0,20.786 -8.37,0 0,7.56 -12.55,0 z" />
      <path
         inkscape:connector-curvature="0"
         id="path3351"
         style="fill:none;stroke:#000000;stroke-width:0.72000003;stroke-linecap:round;stroke-linejoin:round;stroke-miterlimit:2;stroke-opacity:1;stroke-dasharray:none"
         d="m 343.87,114.36 0,-28.346 20.92,0 0,20.786 -8.37,0 0,7.56 -12.55,0 z" />
      <path
         inkscape:connector-curvature="0"
         id="path3353"
         style="fill:#ffffff;fill-opacity:1;fill-rule:evenodd;stroke:none"
         d="m 364.79,106.8 -8.37,7.56 0,-7.56 8.37,0 z" />
      <path
         inkscape:connector-curvature="0"
         id="path3355"
         style="fill:none;stroke:#000000;stroke-width:0.72000003;stroke-linecap:round;stroke-linejoin:round;stroke-miterlimit:2;stroke-opacity:1;stroke-dasharray:none"
         d="m 364.79,106.8 -8.37,7.56 0,-7.56 8.37,0 z" />
      <path
         inkscape:connector-curvature="0"
         id="path3357"
         style="fill:#ffffff;fill-opacity:1;fill-rule:evenodd;stroke:none"
         d="m 475.14,114.36 0,-28.346 20.92,0 0,20.786 -8.37,0 0,7.56 -12.55,0 z" />
      <path
         inkscape:connector-curvature="0"
         id="path3359"
         style="fill:none;stroke:#000000;stroke-width:0.72000003;stroke-linecap:round;stroke-linejoin:round;stroke-miterlimit:2;stroke-opacity:1;stroke-dasharray:none"
         d="m 475.14,114.36 0,-28.346 20.92,0 0,20.786 -8.37,0 0,7.56 -12.55,0 z" />
      <path
         inkscape:connector-curvature="0"
         id="path3361"
         style="fill:#ffffff;fill-opacity:1;fill-rule:evenodd;stroke:none"
         d="m 496.06,106.8 -8.37,7.56 0,-7.56 8.37,0 z" />
      <path
         inkscape:connector-curvature="0"
         id="path3363"
         style="fill:none;stroke:#000000;stroke-width:0.72000003;stroke-linecap:round;stroke-linejoin:round;stroke-miterlimit:2;stroke-opacity:1;stroke-dasharray:none"
         d="m 496.06,106.8 -8.37,7.56 0,-7.56 8.37,0 z" />
      <path
         inkscape:connector-curvature="0"
         id="path3365"
         style="fill:#ffffff;fill-opacity:1;fill-rule:evenodd;stroke:none"
         d="m 482.83,110.01 -2.55,2.84 0,-1.87 -3.11,0 0,-1.93 3.11,0 0,-1.87 2.55,2.83 z" />
      <path
         inkscape:connector-curvature="0"
         id="path3367"
         style="fill:none;stroke:#000000;stroke-width:0.23999999;stroke-linecap:round;stroke-linejoin:round;stroke-miterlimit:2;stroke-opacity:1;stroke-dasharray:none"
         d="m 482.83,110.01 -2.55,2.84 0,-1.87 -3.11,0 0,-1.93 3.11,0 0,-1.87 2.55,2.83 z" />
      <path
         inkscape:connector-curvature="0"
         id="path3369"
         style="fill:#ffffff;fill-opacity:1;fill-rule:evenodd;stroke:none"
         d="m 475.14,71.841 0,-28.347 20.92,0 0,20.787 -8.37,0 0,7.56 -12.55,0 z" />
      <path
         inkscape:connector-curvature="0"
         id="path3371"
         style="fill:none;stroke:#000000;stroke-width:0.72000003;stroke-linecap:round;stroke-linejoin:round;stroke-miterlimit:2;stroke-opacity:1;stroke-dasharray:none"
         d="m 475.14,71.841 0,-28.347 20.92,0 0,20.787 -8.37,0 0,7.56 -12.55,0 z" />
      <path
         inkscape:connector-curvature="0"
         id="path3373"
         style="fill:#ffffff;fill-opacity:1;fill-rule:evenodd;stroke:none"
         d="m 496.06,64.281 -8.37,7.56 0,-7.56 8.37,0 z" />
      <path
         inkscape:connector-curvature="0"
         id="path3375"
         style="fill:none;stroke:#000000;stroke-width:0.72000003;stroke-linecap:round;stroke-linejoin:round;stroke-miterlimit:2;stroke-opacity:1;stroke-dasharray:none"
         d="m 496.06,64.281 -8.37,7.56 0,-7.56 8.37,0 z" />
      <path
         inkscape:connector-curvature="0"
         id="path3377"
         style="fill:#000000;fill-opacity:1;fill-rule:evenodd;stroke:none"
         d="m 482.83,67.494 -2.55,2.835 0,-1.871 -3.11,0 0,-1.928 3.11,0 0,-1.871 2.55,2.835 z" />
      <path
         inkscape:connector-curvature="0"
         id="path3379"
         style="fill:none;stroke:#000000;stroke-width:0.23999999;stroke-linecap:round;stroke-linejoin:round;stroke-miterlimit:2;stroke-opacity:1;stroke-dasharray:none"
         d="m 482.83,67.494 -2.55,2.835 0,-1.871 -3.11,0 0,-1.928 3.11,0 0,-1.871 2.55,2.835 z" />
      <text
         id="text3381"
         transform="scale(1,-1)"
         x="259.12"
         y="-96.586998">
        <tspan
           id="tspan3383"
           sodipodi:role="line"
           y="-96.586998"
           x="259.12 267.78592 274.45981 277.79391 284.4678 291.14172 297.81561 304.4895 307.15558 313.8295 319.82968"
           style="font-size:12.00024033px;font-variant:normal;font-weight:normal;writing-mode:lr-tb;fill:#000000;fill-opacity:1;fill-rule:nonzero;stroke:none;font-family:Arial;-inkscape-font-specification:Arial">Datenobjekt</tspan>
      </text>
      <text
         id="text3385"
         transform="scale(1,-1)"
         x="259.12"
         y="-57.014999">
        <tspan
           id="tspan3387"
           sodipodi:role="line"
           y="-57.014999"
           x="259.12 267.78592 274.45981 277.79391 284.4678"
           style="font-size:12.00024033px;font-variant:normal;font-weight:normal;writing-mode:lr-tb;fill:#000000;fill-opacity:1;fill-rule:nonzero;stroke:none;font-family:Arial;-inkscape-font-specification:Arial">Daten</tspan>
      </text>
      <text
         id="text3389"
         transform="scale(1,-1)"
         x="291.14001"
         y="-57.014999">
        <tspan
           id="tspan3391"
           y="-57.014999"
           x="291.14001"
           style="font-size:12.00024033px;font-variant:normal;font-weight:normal;writing-mode:lr-tb;fill:#000000;fill-opacity:1;fill-rule:nonzero;stroke:none;font-family:Arial;-inkscape-font-specification:Arial">-</tspan>
      </text>
      <text
         id="text3393"
         transform="scale(1,-1)"
         x="259.12"
         y="-42.615002">
        <tspan
           id="tspan3395"
           sodipodi:role="line"
           y="-42.615002"
           x="259.12 265.12018 271.7941 278.46799 281.13406 287.13428 293.80817 300.48206"
           style="font-size:12.00024033px;font-variant:normal;font-weight:normal;writing-mode:lr-tb;fill:#000000;fill-opacity:1;fill-rule:nonzero;stroke:none;font-family:Arial;-inkscape-font-specification:Arial">speicher</tspan>
      </text>
      <text
         id="text3397"
         transform="scale(1,-1)"
         x="392.35001"
         y="-96.586998">
        <tspan
           id="tspan3399"
           sodipodi:role="line"
           y="-96.586998"
           x="392.35001 401.01593 407.68982 411.02393 417.69781 424.3717 427.03781 433.7117 440.38559 447.05948"
           style="font-size:12.00024033px;font-variant:normal;font-weight:normal;writing-mode:lr-tb;fill:#000000;fill-opacity:1;fill-rule:nonzero;stroke:none;font-family:Arial;-inkscape-font-specification:Arial">Dateninput</tspan>
      </text>
      <text
         id="text3401"
         transform="scale(1,-1)"
         x="392.35001"
         y="-49.814999">
        <tspan
           id="tspan3403"
           sodipodi:role="line"
           y="-49.814999"
           x="392.35001 401.01593 407.68982 411.02393 417.69781 424.3717 431.04559 437.71951 441.05362 447.72751 454.4014"
           style="font-size:12.00024033px;font-variant:normal;font-weight:normal;writing-mode:lr-tb;fill:#000000;fill-opacity:1;fill-rule:nonzero;stroke:none;font-family:Arial;-inkscape-font-specification:Arial">Datenoutput</tspan>
      </text>
      <path
         style="fill:none;stroke:#000000;stroke-width:0.71861804;stroke-linecap:round;stroke-linejoin:miter;stroke-miterlimit:4;stroke-opacity:1;stroke-dasharray:none"
         d="m 426.3923,305.10238 c 0,-23.06239 0,-22.99251 0,-22.99251"
         id="path5781"
         inkscape:connector-curvature="0" />
      <path
         style="fill:none;stroke:#000000;stroke-width:0.71861804;stroke-linecap:round;stroke-linejoin:miter;stroke-miterlimit:4;stroke-opacity:1;stroke-dasharray:none"
         d="m 429.11304,305.12177 c -2.7207,0 -2.71245,0 -2.71245,0"
         id="path5781-4"
         inkscape:connector-curvature="0" />
      <path
         style="fill:none;stroke:#000000;stroke-width:0.71861804;stroke-linecap:round;stroke-linejoin:miter;stroke-miterlimit:4;stroke-opacity:1;stroke-dasharray:none"
         d="m 429.10295,282.10784 c -2.7207,0 -2.71245,0 -2.71245,0"
         id="path5781-4-0"
         inkscape:connector-curvature="0" />
    </g>
  </g>
</svg>
